<svg width="48" height="48" viewBox="0 0 48 48" fill="none" xmlns="http://www.w3.org/2000/svg">
<path fill-rule="evenodd" clip-rule="evenodd" d="M47.3425 14.8077C47.3425 14.2422 47.3425 13.6767 47.3425 13.1112C47.3425 12.6378 47.3359 12.1578 47.3227 11.6844C47.2964 10.6455 47.2307 9.6 47.0466 8.57425C46.8625 7.53534 46.5534 6.56219 46.0734 5.61534C45.6 4.68822 44.9819 3.83342 44.2455 3.09699C43.509 2.36055 42.6542 1.74247 41.7271 1.26904C40.7803 0.789041 39.8137 0.48 38.7748 0.29589C37.749 0.111781 36.7036 0.0526027 35.6647 0.019726C35.1847 0.0131507 34.7047 0.00657534 34.2312 0C33.6658 0 33.1003 0 32.5348 0H14.8077C14.2422 0 13.6767 0 13.1112 0C12.6378 0 12.1578 0.00657534 11.6844 0.019726C10.6455 0.0460274 9.6 0.111781 8.57425 0.29589C7.53534 0.486575 6.56219 0.789041 5.62192 1.27562C4.68822 1.74904 3.84 2.36712 3.10356 3.10356C2.36712 3.84 1.74247 4.68822 1.26904 5.62192C0.789041 6.56877 0.48 7.53534 0.29589 8.58082C0.111781 9.60657 0.0526027 10.6521 0.019726 11.691C0.0131507 12.1644 0.00657534 12.6378 0 13.1112C0 13.6767 0 14.2422 0 14.8077V32.5282C0 33.0937 0 33.6592 0 34.2247C0 34.6981 0.00657534 35.1781 0.019726 35.6515C0.0460274 36.6904 0.111781 37.7359 0.29589 38.7616C0.48 39.8005 0.789041 40.7737 1.26904 41.7205C1.74247 42.6477 2.36055 43.5025 3.09699 44.2389C3.83342 44.9753 4.68822 45.5934 5.61534 46.0668C6.56219 46.5468 7.52877 46.8559 8.56767 47.04C9.59342 47.2241 10.6389 47.2833 11.6778 47.3162C12.1512 47.3293 12.6312 47.3359 13.1047 47.3359C13.6701 47.3425 14.2356 47.3359 14.8011 47.3359H32.5216C33.0871 47.3359 33.6526 47.3359 34.2181 47.3359C34.6915 47.3359 35.1715 47.3293 35.6449 47.3162C36.6838 47.2899 37.7293 47.2241 38.7551 47.04C39.794 46.8559 40.7671 46.5468 41.7074 46.0668C42.6345 45.5934 43.4893 44.9753 44.2257 44.2389C44.9622 43.5025 45.5803 42.6542 46.0537 41.7205C46.5337 40.7737 46.8427 39.8071 47.0268 38.7616C47.211 37.7359 47.2701 36.6904 47.303 35.6515C47.3162 35.1781 47.3227 34.6981 47.3227 34.2247C47.3293 33.6592 47.3227 33.0937 47.3227 32.5282L47.3425 14.8077Z" fill="url(#paint0_linear_129_16)"/>
<path fill-rule="evenodd" clip-rule="evenodd" d="M33.4684 7.23284C33.3567 7.24599 32.3375 7.42352 32.2125 7.44982L18.1413 10.2904H18.1347C17.7665 10.3693 17.4772 10.5008 17.2602 10.6849C16.9906 10.9085 16.846 11.2306 16.7868 11.5989C16.7736 11.6778 16.7539 11.8356 16.7539 12.0723C16.7539 12.0723 16.7539 26.446 16.7539 29.6811C16.7539 30.0953 16.721 30.4898 16.4449 30.8317C16.1687 31.1737 15.8202 31.2723 15.4191 31.3578C15.1101 31.4169 14.8076 31.4827 14.4986 31.5419C13.3347 31.7786 12.5786 31.9364 11.8947 32.1994C11.2372 32.4558 10.7506 32.778 10.3561 33.1857C9.58022 33.9945 9.2646 35.0991 9.37638 36.1315C9.46844 37.0126 9.86296 37.8542 10.5468 38.4723C11.0071 38.8931 11.5791 39.2153 12.2564 39.3468C12.9599 39.4849 13.703 39.4389 14.7945 39.2153C15.3731 39.0969 15.9188 38.9128 16.4383 38.6104C16.9512 38.3079 17.3917 37.9068 17.7336 37.4137C18.0756 36.9205 18.2991 36.3748 18.4241 35.7895C18.549 35.1912 18.5819 34.6454 18.5819 34.0471V18.7791C18.5819 17.9638 18.812 17.7468 19.4761 17.5824C19.4761 17.5824 31.1736 15.2219 31.7194 15.1167C32.4821 14.972 32.8372 15.189 32.8372 15.9846V26.4131C32.8372 26.8274 32.8306 27.2416 32.5545 27.5835C32.2783 27.9254 31.9298 28.0241 31.5287 28.1095C31.2197 28.1687 30.9172 28.2345 30.6082 28.2937C29.4443 28.5304 28.6882 28.6882 28.0043 28.9512C27.3468 29.2076 26.8602 29.5298 26.4657 29.9375C25.6898 30.7463 25.3479 31.8509 25.4597 32.8832C25.5517 33.7643 25.9725 34.606 26.6564 35.2241C27.1167 35.6449 27.6887 35.9539 28.366 36.092C29.0695 36.2301 29.8125 36.1841 30.9041 35.9605C31.4827 35.8421 32.0284 35.6712 32.5479 35.3621C33.0608 35.0597 33.5013 34.6586 33.8432 34.1654C34.1851 33.6723 34.4087 33.1265 34.5336 32.5413C34.6586 31.943 34.6651 31.3972 34.6651 30.7989V8.47558C34.6586 7.66681 34.2312 7.16708 33.4684 7.23284Z" fill="white"/>
<defs>
<linearGradient id="paint0_linear_129_16" x1="23.6712" y1="47.159" x2="23.6712" y2="1.02036" gradientUnits="userSpaceOnUse">
<stop stop-color="#FA233B"/>
<stop offset="1" stop-color="#FB5C74"/>
</linearGradient>
</defs>
</svg>
