<svg width="48" height="48" viewBox="0 0 48 48" fill="none" xmlns="http://www.w3.org/2000/svg">
<path d="M24 0C10.7451 0 0 10.7451 0 24C0 37.2548 10.7451 48 24 48C37.2548 48 48 37.2548 48 24C48 10.7451 37.2548 0 24 0ZM34.4451 34.8306C34.1399 35.3527 33.5907 35.6439 33.0266 35.644C32.7453 35.644 32.4605 35.5716 32.2001 35.4195C27.8872 32.899 22.9049 32.4939 19.4838 32.598C15.6942 32.7132 12.9151 33.4613 12.8875 33.469C12.0139 33.7076 11.1112 33.1935 10.8715 32.3201C10.632 31.4467 11.1443 30.5445 12.0174 30.304C12.1427 30.2695 15.1332 29.4573 19.2918 29.3201C21.7414 29.2393 24.0996 29.41 26.2999 29.8274C29.0869 30.3561 31.6291 31.2841 33.8562 32.5856C34.6389 33.0429 34.9024 34.0481 34.4451 34.8306ZM37.4963 28.4936C37.1349 29.1121 36.4843 29.4569 35.816 29.457C35.4829 29.457 35.1454 29.3714 34.837 29.1911C29.7284 26.2055 23.8265 25.7259 19.7742 25.8491C15.2853 25.9856 11.9934 26.8718 11.9607 26.8808C10.9262 27.1631 9.85665 26.5546 9.57279 25.52C9.28905 24.4853 9.89593 23.4168 10.9301 23.1318C11.0785 23.091 14.6208 22.1287 19.5468 21.9663C22.4486 21.8707 25.2418 22.0728 27.8482 22.5672C31.1494 23.1935 34.1607 24.2927 36.7987 25.8344C37.7258 26.376 38.0381 27.5667 37.4963 28.4936ZM39.3719 22.7317C38.9633 22.7317 38.5493 22.6266 38.171 22.4055C26.0257 15.3076 10.271 19.5273 10.1133 19.5709C8.84356 19.9207 7.53091 19.175 7.18117 17.9053C6.83131 16.6357 7.57704 15.3229 8.84671 14.9731C9.02865 14.923 13.3737 13.7428 19.416 13.5435C22.9755 13.4264 26.4015 13.6742 29.5985 14.2806C33.6478 15.0488 37.3416 16.397 40.5773 18.2881C41.7143 18.9525 42.0974 20.4129 41.4329 21.5499C40.9895 22.3086 40.1916 22.7317 39.3719 22.7317Z" fill="#00D95F"/>
</svg>
