<svg width="48" height="48" viewBox="0 0 48 48" fill="none" xmlns="http://www.w3.org/2000/svg">
<g clip-path="url(#clip0_129_32)">
<path d="M43.068 14.226C45.02 12.84 46.662 11.11 48 9.11799V9.11599C46.214 9.89799 44.314 10.418 42.33 10.67C44.37 9.45199 45.928 7.53799 46.66 5.23199C44.758 6.36599 42.658 7.16599 40.42 7.61399C38.614 5.68999 36.04 4.49999 33.232 4.49999C27.784 4.49999 23.398 8.92199 23.398 14.342C23.398 15.122 23.464 15.872 23.626 16.586C15.446 16.186 8.20599 12.266 3.34199 6.29199C2.49399 7.76599 1.99399 9.45199 1.99399 11.266C1.99399 14.674 3.74799 17.694 6.36599 19.444C4.78399 19.414 3.23399 18.954 1.91999 18.232V18.34C1.91999 23.122 5.32999 27.094 9.80399 28.01C9.00199 28.23 8.12999 28.334 7.22399 28.334C6.59399 28.334 5.95799 28.298 5.36199 28.166C6.63599 32.062 10.256 34.928 14.556 35.022C11.208 37.64 6.95599 39.218 2.35399 39.218C1.54799 39.218 0.773992 39.182 -7.62939e-06 39.084C4.35999 41.894 9.52399 43.5 15.096 43.5C32.462 43.5 43.78 29.012 43.068 14.226Z" fill="#19B2E5"/>
</g>
<defs>
<clipPath id="clip0_129_32">
<rect width="48" height="48" fill="white"/>
</clipPath>
</defs>
</svg>
